<svg version="1.1" id="Layer_1" xmlns="http://www.w3.org/2000/svg" xmlns:xlink="http://www.w3.org/1999/xlink" x="0px" y="0px"
	 width="100%" viewBox="0 0 512 512" enable-background="new 0 0 512 512" xml:space="preserve">
<path fill="#000000" opacity="1.000000" stroke="none" 
	d="
M472.000000,513.000000 
	C314.704926,513.000000 157.909851,513.000000 1.057392,513.000000 
	C1.057392,342.413239 1.057392,171.826477 1.057392,1.119846 
	C171.545044,1.119846 342.090210,1.119846 512.817688,1.119846 
	C512.817688,171.666489 512.817688,342.333252 512.817688,513.000000 
	C499.493073,513.000000 485.996552,513.000000 472.000000,513.000000 
M96.713623,352.089111 
	C103.032265,346.975433 109.357918,341.870392 115.668251,336.746490 
	C134.730484,321.268097 153.786774,305.782379 173.578629,290.683929 
	C183.514160,295.057343 192.500290,293.261444 201.382568,286.881592 
	C235.588654,303.940430 269.794739,320.999268 304.276337,338.712921 
	C304.903839,340.222839 305.469299,341.762177 306.168884,343.237915 
	C310.691498,352.778595 320.810577,358.231842 331.341583,356.838165 
	C341.330170,355.516235 349.698914,347.685150 351.572754,337.580811 
	C352.140656,334.518707 352.023468,331.329529 352.897064,328.083038 
	C385.193237,302.760193 417.491486,277.440002 449.770020,252.094711 
	C450.388184,251.609283 450.773438,250.827209 452.065704,250.165848 
	C466.111755,255.646759 478.337189,252.286041 484.767273,241.176361 
	C491.155151,230.139648 488.539215,216.953079 477.406281,209.154556 
	C464.407593,200.049133 448.039154,206.222885 441.923370,219.760559 
	C439.175720,225.842743 439.968231,231.825500 440.848969,238.558014 
	C440.266846,239.151733 439.744385,239.822205 439.093842,240.327881 
	C425.846344,250.625580 412.534973,260.841675 399.336884,271.202148 
	C380.831451,285.728851 362.408142,300.360229 343.283173,314.771576 
	C338.580078,312.846832 334.016846,309.864807 329.144379,309.220245 
	C319.381927,307.928894 312.601746,313.791382 306.158203,320.937927 
	C298.433014,317.139709 290.695862,313.365631 282.984863,309.538818 
	C258.041718,297.160156 233.108200,284.762146 207.986771,271.601654 
	C208.504257,262.359833 205.411682,254.815750 197.755066,249.276245 
	C185.325317,240.283386 167.798157,246.061264 161.889038,259.839813 
	C159.256012,265.979370 159.999817,271.910431 160.844131,278.598206 
	C159.549683,279.889923 158.355087,281.303925 156.945511,282.454620 
	C141.011917,295.461823 125.064980,308.452942 109.078621,321.395233 
	C102.046898,327.087982 94.916985,332.659485 87.129288,338.098236 
	C69.962837,325.902893 50.636341,337.121460 48.081749,353.882355 
	C46.155369,366.521484 55.614094,378.846832 68.072662,380.774475 
	C80.901703,382.759460 93.010307,374.485870 95.518974,361.775574 
	C96.122490,358.717865 95.890610,355.495300 96.713623,352.089111 
z"/>
<path fill="#655D67" opacity="1.000000" stroke="none" 
	d="
M343.949707,314.946838 
	C362.408142,300.360229 380.831451,285.728851 399.336884,271.202148 
	C412.534973,260.841675 425.846344,250.625580 439.093842,240.327881 
	C439.744385,239.822205 440.266846,239.151733 441.277527,238.454102 
	C444.893219,242.294647 448.080292,246.239105 451.267365,250.183563 
	C450.773438,250.827209 450.388184,251.609283 449.770020,252.094711 
	C417.491486,277.440002 385.193237,302.760193 352.285461,327.879089 
	C349.099152,323.432404 346.524445,319.189606 343.949707,314.946838 
z"/>
<path fill="#655D67" opacity="1.000000" stroke="none" 
	d="
M304.000824,338.058105 
	C269.794739,320.999268 235.588654,303.940430 201.193878,286.400452 
	C203.393753,281.403412 205.782349,276.887512 208.170959,272.371613 
	C233.108200,284.762146 258.041718,297.160156 282.984863,309.538818 
	C290.695862,313.365631 298.433014,317.139709 306.455750,321.308777 
	C305.835815,327.139099 304.918304,332.598602 304.000824,338.058105 
z"/>
<path fill="#8AB2E8" opacity="1.000000" stroke="none" 
	d="
M451.666534,250.174713 
	C448.080292,246.239105 444.893219,242.294647 441.443268,238.146469 
	C439.968231,231.825500 439.175720,225.842743 441.923370,219.760559 
	C448.039154,206.222885 464.407593,200.049133 477.406281,209.154556 
	C488.539215,216.953079 491.155151,230.139648 484.767273,241.176361 
	C478.337189,252.286041 466.111755,255.646759 451.666534,250.174713 
z"/>
<path fill="#94D4A3" opacity="1.000000" stroke="none" 
	d="
M304.138580,338.385498 
	C304.918304,332.598602 305.835815,327.139099 306.813538,321.318756 
	C312.601746,313.791382 319.381927,307.928894 329.144379,309.220245 
	C334.016846,309.864807 338.580078,312.846832 343.616455,314.859192 
	C346.524445,319.189606 349.099152,323.432404 351.946960,327.936859 
	C352.023468,331.329529 352.140656,334.518707 351.572754,337.580811 
	C349.698914,347.685150 341.330170,355.516235 331.341583,356.838165 
	C320.810577,358.231842 310.691498,352.778595 306.168884,343.237915 
	C305.469299,341.762177 304.903839,340.222839 304.138580,338.385498 
z"/>
<path fill="#FDA85F" opacity="1.000000" stroke="none" 
	d="
M208.078857,271.986633 
	C205.782349,276.887512 203.393753,281.403412 200.864243,286.213013 
	C192.500290,293.261444 183.514160,295.057343 173.011551,290.300781 
	C168.698166,285.951904 164.951859,281.986176 161.205551,278.020477 
	C159.999817,271.910431 159.256012,265.979370 161.889038,259.839813 
	C167.798157,246.061264 185.325317,240.283386 197.755066,249.276245 
	C205.411682,254.815750 208.504257,262.359833 208.078857,271.986633 
z"/>
<path fill="#E3636D" opacity="1.000000" stroke="none" 
	d="
M96.042908,352.348541 
	C95.890610,355.495300 96.122490,358.717865 95.518974,361.775574 
	C93.010307,374.485870 80.901703,382.759460 68.072662,380.774475 
	C55.614094,378.846832 46.155369,366.521484 48.081749,353.882355 
	C50.636341,337.121460 69.962837,325.902893 87.599792,338.502686 
	C90.727829,343.387573 93.385368,347.868073 96.042908,352.348541 
z"/>
<path fill="#655D67" opacity="1.000000" stroke="none" 
	d="
M96.378265,352.218811 
	C93.385368,347.868073 90.727829,343.387573 87.950974,338.596558 
	C94.916985,332.659485 102.046898,327.087982 109.078621,321.395233 
	C125.064980,308.452942 141.011917,295.461823 156.945511,282.454620 
	C158.355087,281.303925 159.549683,279.889923 161.024841,278.309326 
	C164.951859,281.986176 168.698166,285.951904 172.644928,290.108582 
	C153.786774,305.782379 134.730484,321.268097 115.668251,336.746490 
	C109.357918,341.870392 103.032265,346.975433 96.378265,352.218811 
z"/>
</svg>